<svg width="435" height="415" viewBox="0 0 435 415" fill="none" xmlns="http://www.w3.org/2000/svg">
<path d="M404.06 350.746H387.151V53.3139C387.151 47.2727 382.252 42.3737 376.21 42.3737H322.603C316.562 42.3737 311.663 47.2727 311.663 53.3139V350.746H293.861V96.1865C293.861 90.1453 288.962 85.2463 282.921 85.2463H229.314C223.273 85.2463 218.374 90.1453 218.374 96.1865V350.746H200.572V162.716C200.572 156.675 195.673 151.776 189.631 151.776H136.022C129.981 151.776 125.082 156.675 125.082 162.716V350.746H107.28V223.981C107.28 217.94 102.381 213.041 96.3396 213.041H42.7303C36.6891 213.041 31.7901 217.94 31.7901 223.981V350.746H10.9402C4.89903 350.746 0 355.645 0 361.686C0 367.727 4.89903 372.626 10.9402 372.626H42.7303H96.3396H136.02H189.629H229.312H282.919H322.601H376.208H404.058C410.099 372.626 414.998 367.727 414.998 361.686C414.998 355.645 410.101 350.746 404.06 350.746Z" fill="#212121"/>
<circle cx="236.5" cy="270.5" r="65.5" fill="#494949"/>
<path d="M216.8 280.67C211.894 281.11 207.824 281.33 204.59 281.33C202.434 281.33 200.85 280.824 199.838 279.812C198.826 278.8 198.32 277.216 198.32 275.06V264.5C198.32 262.19 198.837 260.518 199.871 259.484C200.927 258.428 202.61 257.9 204.92 257.9H216.8V262.52H206.24C204.92 262.52 204.26 263.18 204.26 264.5V275.06C204.26 275.566 204.403 275.973 204.689 276.281C204.997 276.567 205.382 276.71 205.844 276.71C206.306 276.71 206.812 276.71 207.362 276.71C207.912 276.688 208.484 276.666 209.078 276.644C209.672 276.622 210.266 276.6 210.86 276.578C211.476 276.556 212.257 276.512 213.203 276.446C214.171 276.38 215.37 276.303 216.8 276.215V280.67ZM239.244 268.13L234.624 276.38H230.004L225.384 268.13V281H219.444V257.9H225.714L232.314 270.11L238.914 257.9H245.184V281H239.244V268.13ZM268.957 268.13L264.337 276.38H259.717L255.097 268.13V281H249.157V257.9H255.427L262.027 270.11L268.627 257.9H274.897V281H268.957V268.13Z" fill="white"/>
<circle cx="83" cy="149" r="42" fill="#494949"/>
<g clip-path="url(#clip0)">
<path d="M109.714 161.42C109.648 161.279 109.587 161.162 109.531 161.068C108.594 159.381 106.803 157.31 104.161 154.854L104.105 154.798L104.077 154.77L104.049 154.742H104.02C102.821 153.599 102.061 152.83 101.743 152.436C101.161 151.687 101.031 150.928 101.349 150.159C101.574 149.578 102.418 148.351 103.879 146.476C104.648 145.482 105.257 144.686 105.707 144.086C108.95 139.775 110.356 137.02 109.924 135.82L109.757 135.54C109.644 135.371 109.354 135.217 108.886 135.076C108.416 134.935 107.817 134.912 107.086 135.006L98.9885 135.062C98.8574 135.015 98.6701 135.019 98.426 135.076C98.1823 135.132 98.0604 135.16 98.0604 135.16L97.9195 135.231L97.8076 135.315C97.7139 135.371 97.6108 135.47 97.4982 135.61C97.3862 135.75 97.2926 135.915 97.2177 136.102C96.3362 138.37 95.3339 140.479 94.209 142.428C93.5154 143.591 92.8785 144.598 92.2968 145.451C91.7159 146.303 91.2285 146.932 90.8352 147.334C90.4413 147.737 90.0858 148.06 89.7666 148.304C89.4478 148.548 89.2045 148.651 89.036 148.613C88.8671 148.576 88.7081 148.538 88.5575 148.501C88.2952 148.332 88.0843 148.103 87.9253 147.812C87.7655 147.522 87.658 147.156 87.6018 146.715C87.5458 146.275 87.5128 145.896 87.5033 145.577C87.4945 145.258 87.4986 144.808 87.5176 144.227C87.5371 143.646 87.5458 143.252 87.5458 143.046C87.5458 142.334 87.5597 141.561 87.5876 140.727C87.616 139.893 87.6389 139.232 87.6581 138.745C87.6772 138.257 87.6861 137.742 87.6861 137.198C87.6861 136.655 87.653 136.228 87.5876 135.919C87.523 135.61 87.4238 135.31 87.2932 135.019C87.1617 134.729 86.9693 134.504 86.7168 134.344C86.4638 134.185 86.1493 134.059 85.775 133.965C84.7814 133.74 83.5163 133.618 81.979 133.599C78.4929 133.562 76.2528 133.787 75.2594 134.274C74.8658 134.48 74.5096 134.762 74.1911 135.118C73.8537 135.53 73.8066 135.755 74.0502 135.792C75.175 135.961 75.9713 136.364 76.4399 137.001L76.6088 137.339C76.7402 137.582 76.8714 138.014 77.0026 138.632C77.1337 139.251 77.2183 139.935 77.2555 140.684C77.3491 142.053 77.3491 143.224 77.2555 144.199C77.1617 145.173 77.073 145.932 76.9884 146.476C76.9039 147.02 76.7774 147.46 76.6088 147.797C76.4399 148.135 76.3276 148.341 76.2712 148.416C76.215 148.491 76.1681 148.538 76.1309 148.556C75.8873 148.65 75.6339 148.697 75.3717 148.697C75.109 148.697 74.7906 148.566 74.4158 148.303C74.0411 148.041 73.6522 147.68 73.2491 147.221C72.8461 146.761 72.3915 146.119 71.8852 145.295C71.3794 144.47 70.8545 143.496 70.3109 142.371L69.8612 141.555C69.58 141.031 69.196 140.267 68.7086 139.264C68.2209 138.261 67.7899 137.291 67.4152 136.354C67.2654 135.96 67.0404 135.661 66.7406 135.454L66.5998 135.37C66.5063 135.295 66.3561 135.215 66.1501 135.131C65.9438 135.046 65.7285 134.986 65.5034 134.948L57.7997 135.004C57.0125 135.004 56.4784 135.182 56.1971 135.539L56.0846 135.707C56.0284 135.801 56 135.951 56 136.157C56 136.363 56.0562 136.616 56.1688 136.916C57.2934 139.559 58.5164 142.108 59.8377 144.564C61.159 147.019 62.3073 148.997 63.2817 150.496C64.2563 151.995 65.2497 153.411 66.262 154.741C67.2742 156.072 67.9442 156.925 68.2721 157.3C68.6003 157.675 68.8581 157.956 69.0455 158.143L69.7485 158.818C70.1983 159.268 70.8589 159.806 71.7305 160.434C72.6023 161.062 73.5675 161.681 74.6265 162.29C75.6857 162.899 76.9179 163.396 78.3239 163.78C79.7296 164.165 81.0978 164.319 82.4287 164.244H85.6621C86.3179 164.188 86.8147 163.982 87.1523 163.626L87.2642 163.485C87.3394 163.373 87.4098 163.199 87.4748 162.965C87.5406 162.731 87.5733 162.473 87.5733 162.192C87.5541 161.386 87.6155 160.66 87.7557 160.013C87.8958 159.367 88.0556 158.88 88.2342 158.551C88.4127 158.224 88.6142 157.947 88.8384 157.722C89.0632 157.498 89.2233 157.361 89.3172 157.315C89.4106 157.267 89.4851 157.235 89.5414 157.216C89.9912 157.066 90.5206 157.212 91.1304 157.652C91.7396 158.093 92.3111 158.637 92.8456 159.283C93.3798 159.93 94.0217 160.656 94.7713 161.462C95.5214 162.268 96.1772 162.867 96.7393 163.261L97.3014 163.599C97.6768 163.824 98.1642 164.03 98.7641 164.217C99.3629 164.405 99.8876 164.452 100.338 164.358L107.535 164.246C108.247 164.246 108.801 164.128 109.194 163.894C109.588 163.66 109.822 163.402 109.897 163.121C109.972 162.84 109.976 162.521 109.911 162.164C109.845 161.809 109.779 161.56 109.714 161.42Z" fill="#56A3FF"/>
</g>
<circle cx="393" cy="149" r="42" fill="#494949"/>
<g clip-path="url(#clip1)">
<path d="M419.947 137.876C419.821 135.007 419.357 133.034 418.692 131.325C418.006 129.511 416.951 127.886 415.569 126.536C414.219 125.165 412.584 124.099 410.79 123.424C409.071 122.759 407.109 122.295 404.24 122.169C401.349 122.032 400.431 122 393.1 122C385.768 122 384.851 122.032 381.971 122.158C379.102 122.285 377.129 122.749 375.42 123.413C373.605 124.099 371.981 125.154 370.631 126.536C369.259 127.886 368.194 129.521 367.519 131.315C366.854 133.034 366.39 134.996 366.264 137.865C366.126 140.756 366.095 141.674 366.095 149.005C366.095 156.337 366.126 157.254 366.253 160.134C366.379 163.004 366.844 164.976 367.509 166.685C368.194 168.5 369.259 170.124 370.631 171.475C371.981 172.846 373.616 173.911 375.41 174.586C377.129 175.251 379.091 175.715 381.961 175.842C384.84 175.969 385.758 176 393.09 176C400.421 176 401.339 175.969 404.219 175.842C407.088 175.715 409.061 175.251 410.769 174.586C414.399 173.183 417.268 170.314 418.671 166.685C419.335 164.966 419.799 163.004 419.926 160.134C420.052 157.254 420.084 156.337 420.084 149.005C420.084 141.674 420.074 140.756 419.947 137.876ZM415.084 159.923C414.968 162.561 414.525 163.985 414.156 164.934C413.248 167.287 411.381 169.154 409.029 170.061C408.079 170.43 406.645 170.873 404.018 170.989C401.17 171.116 400.316 171.147 393.111 171.147C385.906 171.147 385.041 171.116 382.203 170.989C379.566 170.873 378.142 170.43 377.192 170.061C376.021 169.628 374.956 168.943 374.091 168.046C373.194 167.17 372.509 166.116 372.076 164.945C371.707 163.995 371.264 162.561 371.148 159.934C371.021 157.086 370.99 156.231 370.99 149.026C370.99 141.821 371.021 140.956 371.148 138.119C371.264 135.482 371.707 134.058 372.076 133.108C372.509 131.937 373.194 130.872 374.102 130.006C374.977 129.11 376.032 128.424 377.203 127.992C378.152 127.623 379.587 127.18 382.214 127.063C385.062 126.937 385.916 126.905 393.121 126.905C400.337 126.905 401.191 126.937 404.029 127.063C406.666 127.18 408.09 127.623 409.04 127.992C410.21 128.424 411.276 129.11 412.141 130.006C413.037 130.882 413.723 131.937 414.156 133.108C414.525 134.058 414.968 135.492 415.084 138.119C415.211 140.967 415.242 141.821 415.242 149.026C415.242 156.231 415.211 157.075 415.084 159.923Z" fill="url(#paint0_linear)"/>
<path d="M393.1 135.133C385.442 135.133 379.228 141.347 379.228 149.005C379.228 156.664 385.442 162.877 393.1 162.877C400.759 162.877 406.972 156.664 406.972 149.005C406.972 141.347 400.759 135.133 393.1 135.133ZM393.1 158.004C388.132 158.004 384.102 153.974 384.102 149.005C384.102 144.037 388.132 140.007 393.1 140.007C398.069 140.007 402.098 144.037 402.098 149.005C402.098 153.974 398.069 158.004 393.1 158.004Z" fill="url(#paint1_linear)"/>
<path d="M410.76 134.585C410.76 136.373 409.309 137.823 407.521 137.823C405.732 137.823 404.282 136.373 404.282 134.585C404.282 132.796 405.732 131.347 407.521 131.347C409.309 131.347 410.76 132.796 410.76 134.585Z" fill="url(#paint2_linear)"/>
</g>
<line x1="183.195" y1="231.457" x2="116.677" y2="175.382" stroke="#3E3E3E"/>
<line x1="350.872" y1="169.354" x2="289.354" y2="230.872" stroke="#3E3E3E"/>
<defs>
<linearGradient id="paint0_linear" x1="393.089" y1="122" x2="393.089" y2="176" gradientUnits="userSpaceOnUse">
<stop stop-color="#8847B4"/>
<stop offset="0.555208" stop-color="#D03471"/>
<stop offset="1" stop-color="#F1AF5D"/>
</linearGradient>
<linearGradient id="paint1_linear" x1="393.1" y1="135.133" x2="393.1" y2="162.877" gradientUnits="userSpaceOnUse">
<stop stop-color="#8847B4"/>
<stop offset="0.555208" stop-color="#D03471"/>
<stop offset="1" stop-color="#F1AF5D"/>
</linearGradient>
<linearGradient id="paint2_linear" x1="407.521" y1="131.347" x2="407.521" y2="137.823" gradientUnits="userSpaceOnUse">
<stop stop-color="#8847B4"/>
<stop offset="0.555208" stop-color="#D03471"/>
<stop offset="1" stop-color="#F1AF5D"/>
</linearGradient>
<clipPath id="clip0">
<rect width="54" height="54" fill="white" transform="translate(56 122)"/>
</clipPath>
<clipPath id="clip1">
<rect width="54" height="54" fill="white" transform="translate(366 122)"/>
</clipPath>
</defs>
</svg>
